<svg width="25" height="24" viewBox="0 0 25 24" fill="none" xmlns="http://www.w3.org/2000/svg">
<path d="M21.5 17V8H7.5V17H21.5ZM21.5 3C22.0304 3 22.5391 3.21071 22.9142 3.58579C23.2893 3.96086 23.5 4.46957 23.5 5V17C23.5 17.5304 23.2893 18.0391 22.9142 18.4142C22.5391 18.7893 22.0304 19 21.5 19H7.5C6.96957 19 6.46086 18.7893 6.08579 18.4142C5.71071 18.0391 5.5 17.5304 5.5 17V5C5.5 4.46957 5.71071 3.96086 6.08579 3.58579C6.46086 3.21071 6.96957 3 7.5 3H8.5V1H10.5V3H18.5V1H20.5V3H21.5ZM3.5 21H17.5V23H3.5C2.96957 23 2.46086 22.7893 2.08579 22.4142C1.71071 22.0391 1.5 21.5304 1.5 21V9H3.5V21ZM19.5 15H15.5V11H19.5V15Z" fill="#5C6C7E"/>
</svg>
