<svg width="24" height="25" viewBox="0 0 24 25" fill="none" xmlns="http://www.w3.org/2000/svg">
<path d="M17.5 13.5C16.9091 13.5 16.3239 13.6164 15.7779 13.8425C15.232 14.0687 14.7359 14.4002 14.318 14.818C13.9002 15.2359 13.5687 15.732 13.3425 16.2779C13.1164 16.8239 13 17.4091 13 18C13 18.5909 13.1164 19.1761 13.3425 19.7221C13.5687 20.268 13.9002 20.7641 14.318 21.182C14.7359 21.5998 15.232 21.9313 15.7779 22.1575C16.3239 22.3836 16.9091 22.5 17.5 22.5C18.6935 22.5 19.8381 22.0259 20.682 21.182C21.5259 20.3381 22 19.1935 22 18C22 16.8065 21.5259 15.6619 20.682 14.818C19.8381 13.9741 18.6935 13.5 17.5 13.5ZM18 16V17.793L18.854 18.646C18.9479 18.7399 19.0006 18.8672 19.0006 19C19.0006 19.1328 18.9479 19.2601 18.854 19.354C18.7601 19.4479 18.6328 19.5006 18.5 19.5006C18.3672 19.5006 18.2399 19.4479 18.146 19.354L17.146 18.354C17.0996 18.3075 17.0628 18.2523 17.0378 18.1915C17.0127 18.1308 16.9999 18.0657 17 18V16C17 15.8674 17.0527 15.7402 17.1464 15.6464C17.2402 15.5527 17.3674 15.5 17.5 15.5C17.6326 15.5 17.7598 15.5527 17.8536 15.6464C17.9473 15.7402 18 15.8674 18 16Z" fill="#007AFF"/>
<path d="M2 12.25C2 14.8359 3.02723 17.3158 4.85571 19.1443C6.68419 20.9728 9.16414 22 11.75 22C11.956 22 12.1597 21.9937 12.361 21.981C11.4765 20.8427 10.9975 19.4416 11 18V20.337C10.27 20.026 9.522 19.265 8.876 18.054C8.48999 17.3157 8.18681 16.537 7.972 15.732C8.915 15.872 9.935 15.962 11 15.99V18C11 16.42 11.563 14.973 12.5 13.846V10.011C13.715 10.045 14.85 10.161 15.858 10.341C15.923 10.781 15.966 11.229 15.987 11.677C16.4677 11.5617 16.9653 11.5027 17.48 11.5C17.4655 11.2318 17.4439 10.964 17.415 10.697C17.575 10.7437 17.729 10.7913 17.877 10.84C18.647 11.097 19.217 11.386 19.578 11.671C19.708 11.773 19.798 11.863 19.86 11.941C20.447 12.171 20.992 12.481 21.481 12.861C21.4943 12.659 21.5007 12.4553 21.5 12.25C21.5 6.865 17.135 2.5 11.75 2.5C6.365 2.5 2 6.865 2 12.25ZM5.149 9.417C4.69163 9.56518 4.24688 9.74977 3.819 9.969C4.137 8.86781 4.68044 7.84474 5.41482 6.96472C6.1492 6.0847 7.0585 5.36694 8.085 4.857C7.893 5.13967 7.71567 5.434 7.553 5.74C7.03 6.721 6.618 7.866 6.351 9.078C5.92367 9.17933 5.523 9.29267 5.149 9.418M8.876 6.447C9.522 5.236 10.27 4.474 11 4.163V8.51C9.98637 8.53452 8.97517 8.62068 7.972 8.768C8.18681 7.96304 8.48999 7.18531 8.876 6.447ZM7.642 10.34C8.75177 10.1483 9.87412 10.0383 11 10.011V14.489C9.8741 14.4614 8.75174 14.3511 7.642 14.159C7.54782 13.527 7.50035 12.889 7.5 12.25C7.5 11.611 7.55 10.969 7.642 10.34ZM3.819 14.531C4.217 14.738 4.666 14.921 5.149 15.083C5.52233 15.2077 5.923 15.321 6.351 15.423C6.618 16.634 7.03 17.779 7.553 18.76C7.715 19.066 7.89233 19.3603 8.085 19.643C7.0585 19.1331 6.1492 18.4153 5.41482 17.5353C4.68044 16.6553 4.137 15.6322 3.819 14.531ZM5.623 13.66C4.853 13.403 4.283 13.114 3.921 12.829C3.551 12.537 3.5 12.336 3.5 12.25C3.5 12.164 3.552 11.963 3.921 11.671C4.283 11.386 4.853 11.097 5.623 10.841C5.771 10.791 5.925 10.743 6.085 10.697C5.97302 11.7293 5.97302 12.7707 6.085 13.803C5.925 13.7563 5.771 13.7087 5.623 13.66ZM15.947 5.74C15.785 5.43672 15.6074 5.14199 15.415 4.857C16.4415 5.36694 17.3508 6.0847 18.0852 6.96472C18.8196 7.84474 19.363 8.86781 19.681 9.969C19.2531 9.74977 18.8084 9.56518 18.351 9.417C17.9556 9.28584 17.5545 9.17239 17.149 9.077C16.882 7.866 16.47 6.721 15.947 5.74ZM12.5 8.51V4.163C13.23 4.474 13.978 5.235 14.624 6.446C14.99 7.133 15.297 7.922 15.528 8.768C14.585 8.628 13.565 8.538 12.5 8.51Z" fill="#007AFF"/>
</svg>
