<svg width="181" height="180" viewBox="0 0 181 180" fill="none" xmlns="http://www.w3.org/2000/svg">
<g clip-path="url(#clip0_866_697)">
<g clip-path="url(#clip1_866_697)">
<path d="M46.7257 172.73C46.5286 172.739 46.3334 172.687 46.1667 172.582C45.9999 172.476 45.8697 172.322 45.7935 172.14C45.7174 171.958 45.6991 171.757 45.741 171.564C45.783 171.371 45.8832 171.196 46.0282 171.062C46.0524 170.965 46.0698 170.896 46.0941 170.799C45.9054 170.32 45.5779 169.908 45.1536 169.616C44.7292 169.324 44.2273 169.166 43.7123 169.161C43.1972 169.156 42.6924 169.305 42.2626 169.589C41.8328 169.873 41.4976 170.279 41.2999 170.754C40.1592 173.424 38.6828 176.189 39.417 179.13C34.5671 168.851 36.2165 156.065 43.3839 147.275C45.3651 146.183 46.9709 144.244 47.3889 141.993C46.4084 142.325 45.1859 141.528 45.9232 140.495C46.2427 140.1 46.5654 139.708 46.8849 139.314C43.1603 135.347 38.7225 141.581 42.8222 146.935C41.4811 148.616 40.3194 150.433 39.3561 152.356C39.5786 150.315 39.3131 148.249 38.5815 146.33C37.84 144.541 36.4502 143.034 35.2263 141.488C33.7382 139.604 30.6756 140.473 30.4753 142.864C31.8486 143.315 32.027 145.299 30.4561 145.571C30.8676 150.019 33.7736 154.107 37.7761 156.058C36.298 160.205 35.7208 164.619 36.0831 169.007C35.3766 163.879 29.872 162.635 26.0245 160.597C25.7797 160.439 25.4944 160.357 25.2035 160.359C24.9126 160.362 24.6287 160.449 24.3863 160.61C24.144 160.771 23.9538 160.999 23.8388 161.266C23.7238 161.533 23.6891 161.828 23.7389 162.115C24.2699 162.33 24.7782 162.599 25.2562 162.915C25.4802 163.066 25.6521 163.282 25.7484 163.534C25.8447 163.786 25.8607 164.062 25.7941 164.323C25.7276 164.585 25.5817 164.82 25.3766 164.995C25.1715 165.17 24.9171 165.278 24.6484 165.303C26.5878 170.103 31.6018 173.326 36.7515 173.308C37.2464 175.459 37.9634 177.552 38.891 179.554H46.5342C46.5616 179.469 46.5863 179.382 46.6109 179.297C45.9035 179.341 45.1932 179.299 44.496 179.171C46.3678 176.954 47.8153 175.824 46.726 172.73L46.7257 172.73Z" fill="#F2F2F2"/>
<path d="M114.866 172.73C115.063 172.739 115.259 172.687 115.425 172.582C115.592 172.476 115.722 172.322 115.799 172.14C115.875 171.958 115.893 171.757 115.851 171.564C115.809 171.371 115.709 171.196 115.564 171.062C115.54 170.965 115.522 170.896 115.498 170.799C115.687 170.32 116.014 169.908 116.438 169.616C116.863 169.324 117.365 169.166 117.88 169.161C118.395 169.156 118.9 169.305 119.329 169.589C119.759 169.873 120.094 170.279 120.292 170.754C121.433 173.424 122.909 176.189 122.175 179.13C127.025 168.851 125.376 156.065 118.208 147.275C116.227 146.183 114.621 144.244 114.203 141.993C115.184 142.325 116.406 141.528 115.669 140.495C115.349 140.1 115.027 139.708 114.707 139.314C118.432 135.347 122.87 141.581 118.77 146.935C120.111 148.616 121.273 150.433 122.236 152.356C122.013 150.315 122.279 148.249 123.011 146.33C123.752 144.541 125.142 143.034 126.366 141.488C127.854 139.604 130.917 140.473 131.117 142.864C129.743 143.315 129.565 145.299 131.136 145.571C130.724 150.019 127.818 154.107 123.816 156.058C125.294 160.205 125.871 164.619 125.509 169.007C126.216 163.879 131.72 162.635 135.568 160.597C135.812 160.439 136.098 160.357 136.389 160.359C136.679 160.362 136.963 160.449 137.206 160.61C137.448 160.771 137.638 160.999 137.753 161.266C137.868 161.533 137.903 161.828 137.853 162.115C137.322 162.33 136.814 162.599 136.336 162.915C136.112 163.066 135.94 163.282 135.844 163.534C135.747 163.786 135.731 164.062 135.798 164.323C135.865 164.585 136.01 164.82 136.215 164.995C136.421 165.17 136.675 165.278 136.944 165.303C135.004 170.103 129.99 173.326 124.841 173.308C124.346 175.459 123.629 177.552 122.701 179.554H115.058C115.03 179.469 115.006 179.382 114.981 179.297C115.689 179.341 116.399 179.299 117.096 179.171C115.224 176.954 113.777 175.824 114.866 172.73Z" fill="#F2F2F2"/>
<path d="M117.701 173.865L114.409 174.613L109.954 162.274L114.812 161.169L117.701 173.865Z" fill="#FFB6B6"/>
<path d="M118.598 177.272L108.476 179.575L108.446 179.447C108.209 178.402 108.396 177.306 108.966 176.399C109.537 175.492 110.445 174.849 111.49 174.611L113.02 172.787L116.788 173.405L117.672 173.204L118.598 177.272Z" fill="#2F2E41"/>
<path d="M170.798 113.716L172.608 116.566L162.477 124.902L159.807 120.696L170.798 113.716Z" fill="#FFB6B6"/>
<path d="M173.707 111.728L179.272 120.491L179.161 120.561C178.257 121.136 177.161 121.328 176.115 121.094C175.069 120.861 174.159 120.221 173.585 119.317L171.354 118.487L170.671 114.729L170.186 113.965L173.707 111.728Z" fill="#2F2E41"/>
<path d="M65.8755 83.2501L65.0625 78.5379L77.4223 72.9567L80.0915 68.2309C80.0053 67.8162 80.0354 67.3858 80.1785 66.9871C80.3215 66.5885 80.572 66.2371 80.9023 65.9719C81.2325 65.7066 81.6296 65.5378 82.0498 65.4841C82.4699 65.4304 82.8967 65.4939 83.283 65.6675C83.6694 65.8411 84.0002 66.1182 84.239 66.468C84.4777 66.8179 84.6152 67.2269 84.6361 67.6499C84.657 68.073 84.5605 68.4936 84.3574 68.8652C84.1543 69.2369 83.8524 69.5452 83.485 69.7561L79.0942 76.5445L65.8755 83.2501Z" fill="#A0616A"/>
<path d="M62.1182 79.398L67.6841 76.5548L69.1575 82.0872L65.2914 84.953L62.1182 79.398Z" fill="#007AFF"/>
<path d="M49.6287 173.436L52.994 173.436L54.595 160.455L49.6279 160.455L49.6287 173.436Z" fill="#A0616A"/>
<path d="M54.1132 173.739V171.458L53.2285 171.512L49.627 171.725L48.7934 171.776L48.1562 179.417L48.1221 179.827H50.5117L50.5885 179.42L50.9356 177.571L51.8317 179.42L52.028 179.827H58.3633C58.7403 179.825 59.1012 179.674 59.3675 179.407C59.6338 179.14 59.7841 178.779 59.7857 178.402C60.0532 177.153 54.7846 174.453 54.1132 173.739Z" fill="#2F2E41"/>
<path d="M9.68003 121.92L8.89551 125.193L21.1454 129.777L22.3032 124.946L9.68003 121.92Z" fill="#A0616A"/>
<path d="M8.60564 126.211L10.8243 126.743L10.978 125.87L11.6103 122.318L11.7548 121.496L4.47287 119.095L4.08246 118.966L3.52529 121.29L3.90298 121.459L5.62021 122.228L3.61312 122.668L3.17175 122.764L1.6946 128.925C1.60902 129.292 1.67173 129.678 1.86914 129.999C2.06654 130.321 2.38268 130.551 2.74891 130.64C3.90101 131.192 7.75474 126.698 8.60564 126.211Z" fill="#2F2E41"/>
<path d="M54.8322 89.4244L50.5003 87.3994L41.8618 97.8536L36.6 99.1843C36.2226 98.992 35.7994 98.9077 35.3771 98.9408C34.9549 98.9738 34.55 99.123 34.2071 99.3717C33.8643 99.6204 33.5969 99.9591 33.4345 100.35C33.272 100.741 33.2209 101.17 33.2867 101.588C33.3525 102.007 33.5326 102.399 33.8072 102.721C34.0819 103.044 34.4403 103.284 34.8429 103.416C35.2455 103.547 35.6766 103.565 36.0887 103.467C36.5007 103.369 36.8776 103.159 37.1778 102.86L44.8828 100.411L54.8322 89.4244Z" fill="#A0616A"/>
<path d="M116.245 50.7245C115.327 50.7245 114.429 50.4522 113.666 49.9421C112.902 49.432 112.307 48.7069 111.956 47.8586C111.605 47.0103 111.513 46.0768 111.692 45.1762C111.871 44.2756 112.313 43.4484 112.962 42.7991C113.612 42.1499 114.439 41.7077 115.339 41.5286C116.24 41.3494 117.173 41.4414 118.022 41.7928C118.87 42.1441 119.595 42.7392 120.105 43.5027C120.615 44.2661 120.888 45.1637 120.888 46.0819C120.886 47.3128 120.397 48.4929 119.526 49.3632C118.656 50.2336 117.476 50.7231 116.245 50.7245ZM116.245 41.9721C115.432 41.9721 114.638 42.2132 113.962 42.6648C113.286 43.1164 112.759 43.7582 112.448 44.5092C112.137 45.2602 112.056 46.0865 112.214 46.8837C112.373 47.6809 112.764 48.4132 113.339 48.988C113.914 49.5628 114.646 49.9542 115.443 50.1128C116.241 50.2713 117.067 50.19 117.818 49.8789C118.569 49.5678 119.211 49.0411 119.662 48.3652C120.114 47.6894 120.355 46.8948 120.355 46.0819C120.354 44.9923 119.92 43.9477 119.15 43.1772C118.379 42.4068 117.335 41.9734 116.245 41.9721Z" fill="#E6E6E6"/>
<path d="M115.918 47.8309C115.908 47.8309 115.899 47.8306 115.89 47.8302C115.807 47.8262 115.727 47.8044 115.653 47.7664C115.58 47.7284 115.516 47.6749 115.465 47.6098L114.734 46.6695C114.688 46.6102 114.654 46.5423 114.634 46.4698C114.614 46.3973 114.608 46.3216 114.618 46.247C114.627 46.1724 114.651 46.1003 114.688 46.0349C114.725 45.9696 114.775 45.9122 114.834 45.866L114.861 45.8455C114.92 45.7993 114.988 45.7652 115.06 45.7453C115.133 45.7253 115.209 45.7198 115.283 45.7292C115.358 45.7385 115.43 45.7624 115.495 45.7996C115.561 45.8368 115.618 45.8866 115.664 45.946C115.701 45.9934 115.748 46.0323 115.801 46.06C115.855 46.0877 115.913 46.1035 115.973 46.1064C116.034 46.1094 116.094 46.0993 116.149 46.0769C116.205 46.0545 116.255 46.0204 116.297 45.9767L117.782 44.4091C117.886 44.299 118.03 44.2349 118.182 44.2307C118.334 44.2266 118.481 44.2829 118.591 44.3871L118.616 44.4103C118.67 44.462 118.714 44.524 118.745 44.5926C118.775 44.6613 118.792 44.7353 118.794 44.8105C118.796 44.8857 118.783 44.9605 118.756 45.0307C118.73 45.101 118.689 45.1652 118.637 45.2198L116.333 47.6521C116.28 47.7086 116.215 47.7536 116.144 47.7843C116.072 47.8151 115.995 47.8309 115.918 47.8309Z" fill="#E6E6E6"/>
<path d="M93.0693 106.933C92.1511 106.933 91.2535 106.66 90.4901 106.15C89.7266 105.64 89.1315 104.915 88.7801 104.067C88.4288 103.219 88.3368 102.285 88.516 101.384C88.6951 100.484 89.1373 99.6567 89.7865 99.0074C90.4358 98.3581 91.263 97.916 92.1636 97.7368C93.0642 97.5577 93.9976 97.6496 94.846 98.001C95.6943 98.3524 96.4194 98.9474 96.9295 99.7109C97.4396 100.474 97.7119 101.372 97.7119 102.29C97.7105 103.521 97.221 104.701 96.3506 105.571C95.4802 106.442 94.3002 106.931 93.0693 106.933ZM93.0693 98.1804C92.2565 98.1804 91.4619 98.4214 90.7861 98.873C90.1102 99.3246 89.5834 99.9665 89.2724 100.717C88.9613 101.468 88.8799 102.295 89.0385 103.092C89.1971 103.889 89.5885 104.621 90.1633 105.196C90.738 105.771 91.4703 106.162 92.2676 106.321C93.0648 106.48 93.8911 106.398 94.6421 106.087C95.3931 105.776 96.0349 105.249 96.4865 104.573C96.9381 103.898 97.1791 103.103 97.1791 102.29C97.1779 101.201 96.7445 100.156 95.974 99.3855C95.2036 98.615 94.1589 98.1816 93.0693 98.1804Z" fill="#E6E6E6"/>
<path d="M92.7417 104.039C92.7324 104.039 92.7231 104.039 92.7138 104.038C92.6313 104.034 92.5507 104.013 92.4775 103.975C92.4043 103.937 92.3402 103.883 92.2895 103.818L91.5582 102.878C91.512 102.818 91.478 102.751 91.458 102.678C91.4381 102.606 91.4326 102.53 91.4419 102.455C91.4512 102.381 91.4752 102.309 91.5123 102.243C91.5495 102.178 91.5992 102.12 91.6585 102.074L91.6849 102.054C91.7442 102.008 91.8121 101.973 91.8846 101.954C91.9571 101.934 92.0329 101.928 92.1075 101.937C92.1822 101.947 92.2542 101.971 92.3196 102.008C92.385 102.045 92.4424 102.095 92.4886 102.154C92.5255 102.202 92.5723 102.241 92.6256 102.268C92.679 102.296 92.7377 102.312 92.7977 102.315C92.8578 102.318 92.9177 102.308 92.9735 102.285C93.0293 102.263 93.0796 102.229 93.121 102.185L94.6059 100.617C94.7104 100.507 94.8543 100.443 95.0061 100.439C95.1579 100.435 95.3051 100.491 95.4154 100.595L95.4398 100.619C95.4944 100.67 95.5382 100.732 95.5689 100.801C95.5995 100.87 95.6164 100.944 95.6184 101.019C95.6204 101.094 95.6076 101.169 95.5807 101.239C95.5538 101.309 95.5133 101.373 95.4616 101.428L93.1573 103.86C93.1038 103.917 93.0394 103.962 92.9679 103.993C92.8965 104.023 92.8195 104.039 92.7417 104.039Z" fill="#E6E6E6"/>
<path d="M42.1885 44.3311C41.2703 44.3311 40.3727 44.0589 39.6092 43.5487C38.8457 43.0386 38.2507 42.3135 37.8993 41.4652C37.5479 40.6169 37.456 39.6834 37.6351 38.7828C37.8142 37.8823 38.2564 37.055 38.9057 36.4058C39.555 35.7565 40.3822 35.3143 41.2828 35.1352C42.1833 34.9561 43.1168 35.048 43.9651 35.3994C44.8134 35.7508 45.5385 36.3458 46.0486 37.1093C46.5588 37.8728 46.8311 38.7703 46.8311 39.6886C46.8297 40.9194 46.3401 42.0995 45.4698 42.9698C44.5994 43.8402 43.4193 44.3298 42.1885 44.3311ZM42.1885 35.5788C41.3756 35.5788 40.5811 35.8198 39.9052 36.2714C39.2293 36.723 38.7026 37.3649 38.3915 38.1158C38.0805 38.8668 37.9991 39.6931 38.1576 40.4903C38.3162 41.2876 38.7077 42.0199 39.2824 42.5946C39.8572 43.1694 40.5895 43.5608 41.3867 43.7194C42.1839 43.878 43.0103 43.7966 43.7612 43.4855C44.5122 43.1745 45.1541 42.6477 45.6056 41.9718C46.0572 41.296 46.2983 40.5014 46.2983 39.6886C46.297 38.599 45.8636 37.5543 45.0932 36.7839C44.3227 36.0134 43.2781 35.58 42.1885 35.5788Z" fill="#E6E6E6"/>
<path d="M41.8609 41.4376C41.8516 41.4376 41.8422 41.4373 41.8329 41.4368C41.7505 41.4328 41.6699 41.4111 41.5967 41.373C41.5234 41.335 41.4593 41.2816 41.4087 41.2164L40.6773 40.2762C40.6312 40.2168 40.5971 40.149 40.5772 40.0765C40.5572 40.004 40.5517 39.9282 40.5611 39.8536C40.5704 39.779 40.5943 39.7069 40.6315 39.6416C40.6686 39.5762 40.7183 39.5188 40.7777 39.4726L40.804 39.4522C40.8634 39.4059 40.9312 39.3719 41.0038 39.3519C41.0763 39.332 41.152 39.3265 41.2267 39.3358C41.3013 39.3451 41.3734 39.3691 41.4388 39.4063C41.5041 39.4435 41.5615 39.4932 41.6077 39.5526C41.6446 39.6 41.6914 39.6389 41.7447 39.6666C41.7981 39.6943 41.8568 39.7102 41.9169 39.7131C41.9769 39.716 42.0369 39.7059 42.0927 39.6835C42.1485 39.6612 42.1988 39.627 42.2401 39.5834L43.725 38.0157C43.8296 37.9057 43.9735 37.8415 44.1252 37.8374C44.277 37.8333 44.4242 37.8895 44.5346 37.9937L44.5589 38.017C44.6135 38.0687 44.6574 38.1306 44.688 38.1993C44.7187 38.268 44.7355 38.342 44.7375 38.4172C44.7396 38.4923 44.7268 38.5672 44.6999 38.6374C44.673 38.7076 44.6325 38.7718 44.5808 38.8264L42.2764 41.2587C42.2229 41.3152 42.1585 41.3602 42.0871 41.391C42.0156 41.4217 41.9387 41.4376 41.8609 41.4376Z" fill="#E6E6E6"/>
<path d="M79.3575 124.194C68.5919 124.194 56.2196 112.248 45.2732 117.924C12.1303 135.11 16.6926 106.352 7.1709 95.6567L7.4835 95.0297C17.9896 104.45 31.1068 112.115 45.4171 117.195C58.3491 121.786 71.3781 123.913 83.0908 123.352L83.1111 124.105C81.8742 124.165 80.623 124.195 79.3575 124.194Z" fill="#F2F2F2"/>
<path d="M64.5892 43.4224C65.832 43.4224 66.8395 42.0714 66.8395 40.4049C66.8395 38.7383 65.832 37.3873 64.5892 37.3873C63.3464 37.3873 62.3389 38.7383 62.3389 40.4049C62.3389 42.0714 63.3464 43.4224 64.5892 43.4224Z" fill="#E6E6E6"/>
<path d="M90.5804 90.4962C89.5516 91.1816 88.4986 89.5502 89.5472 88.8951C90.5759 88.2097 91.6289 89.8412 90.5804 90.4962Z" fill="#E6E6E6"/>
<path d="M84.6588 35.571C86.2772 35.571 87.5891 34.2591 87.5891 32.6407C87.5891 31.0224 86.2772 29.7104 84.6588 29.7104C83.0404 29.7104 81.7285 31.0224 81.7285 32.6407C81.7285 34.2591 83.0404 35.571 84.6588 35.571Z" fill="#FF6584"/>
<path opacity="0.3" d="M94.9078 48.6985L111.582 0L93.2726 48.1155C93.1821 48.2297 93.1201 48.3639 93.0917 48.5068C93.0634 48.6498 93.0695 48.7975 93.1097 48.9376C93.1498 49.0777 93.2228 49.2062 93.3225 49.3125C93.4222 49.4188 93.5459 49.4997 93.6832 49.5487C93.8204 49.5976 93.9674 49.6131 94.1119 49.5939C94.2564 49.5747 94.3942 49.5213 94.5139 49.4382C94.6336 49.3551 94.7318 49.2446 94.8003 49.116C94.8688 48.9873 94.9056 48.8442 94.9078 48.6985Z" fill="#F0F0F0"/>
<path d="M78.0776 108.027C79.6521 108.027 80.9285 106.751 80.9285 105.176C80.9285 103.602 79.6521 102.325 78.0776 102.325C76.503 102.325 75.2266 103.602 75.2266 105.176C75.2266 106.751 76.503 108.027 78.0776 108.027Z" fill="#F2F2F2"/>
<path d="M50.4642 106.264C50.4642 106.264 43.3568 110.892 45.2361 113.967C45.301 114.073 36.7463 125.372 36.7463 125.372L20.5973 124.347L20.0283 129.752L34.4054 133.916C34.4054 133.916 37.9225 136.5 40.6397 133.653C43.3568 130.806 52.4072 122.087 52.4072 122.087L52.8437 139.689L48.3005 164.081L55.0841 163.651L61.6867 139.18L64.1238 111.461L50.4642 106.264Z" fill="#2F2E41"/>
<path d="M55.5274 78.4878L52.5386 80.7528L49.132 88.0235L52.4078 92.4725C52.4078 92.4725 55.1633 97.2479 50.7527 101.873C46.3421 106.497 42.9553 111.437 46.4855 111.26C50.0157 111.084 64.3136 118.356 64.4077 112.398C64.5018 106.44 64.6922 101.873 64.6922 101.873L68.4408 92.3649C68.4408 92.3649 70.6741 86.6931 69.1061 84.9953C67.5381 83.2975 65.4387 81.1279 65.4387 81.1279L61.6208 77.31H58.1734L55.5274 78.4878Z" fill="#007AFF"/>
<path d="M61.1068 64.5179C67.8119 68.3334 62.3073 78.4006 55.4772 74.8157C48.7723 71.0003 54.2769 60.9332 61.1068 64.5179Z" fill="#A0616A"/>
<path d="M64.6917 66.6335C64.2219 67.2445 63.2403 66.958 61.3181 67.394C61.3223 66.7425 61.247 66.0928 61.0939 65.4595C60.9509 66.2437 60.6375 66.9869 60.1758 67.6366C58.5067 67.8217 60.5528 72.8924 59.6982 76.6205C58.5971 68.7554 56.281 70.816 57.4511 72.376C58.2001 73.3747 57.7008 76.3709 55.4537 74.8728C51.746 76.6349 46.4653 67.8818 52.318 63.7768C52.2134 61.5579 54.6823 61.2074 56.2027 61.8896C59.8923 59.141 64.1078 62.6629 64.6917 66.6335Z" fill="#2F2E41"/>
<path d="M47.4877 60.8944C45.9949 70.0727 37.9936 59.2064 34.2314 68.2388C33.0485 71.5098 35.078 73.8497 36.3618 76.5648C36.6548 78.7961 33.752 79.9282 33.448 81.9821C33.3633 86.6909 40.9601 86.4027 43.0839 83.4319C45.266 80.322 42.6602 76.1494 43.9719 72.8113C45.8154 68.1768 53.3125 68.1424 53.9656 62.7506C52.7007 60.9493 49.2994 58.8863 47.4877 60.8944Z" fill="#2F2E41"/>
<path d="M53.5354 61.7912C53.4866 61.8118 53.4378 61.8324 53.3941 61.8555H53.3915C53.3504 61.8761 53.3092 61.8966 53.2681 61.9197C53.263 61.9223 53.2604 61.9249 53.2553 61.9275C53.2013 61.8761 53.1473 61.8247 53.0908 61.7732C53.0762 61.857 53.0797 61.9429 53.1011 62.0251L53.1088 62.056C53.1602 62.11 53.2142 62.1614 53.2707 62.2153C53.3221 62.1768 53.371 62.1357 53.4223 62.0971C53.4532 62.0714 53.484 62.0457 53.5175 62.02C53.5226 61.9532 53.5303 61.8761 53.538 61.7912L53.5354 61.7912ZM55.0828 58.933C53.9364 58.6708 53.5663 60.1693 53.4558 60.8916C53.0394 58.2699 51.3069 59.0949 51.9058 60.8839C52.0967 61.4135 52.3971 61.897 52.7875 62.3027C52.8415 62.3644 52.9006 62.4261 52.9623 62.4878C52.8929 62.8476 53.2424 62.7551 53.7154 62.4235C54.0646 62.1752 54.3876 61.8918 54.6792 61.5779C55.6226 60.5883 56.3577 59.2646 55.0828 58.933ZM55.1188 60.4084C54.7651 60.8644 54.3683 61.2854 53.9339 61.6653C53.7976 61.7887 53.6588 61.9069 53.5175 62.02C53.5149 62.0431 53.5149 62.0637 53.5123 62.0817C53.5024 62.1067 53.4903 62.1307 53.4763 62.1536C53.3324 62.4133 53.1705 62.2719 53.1088 62.056C53.1036 62.0483 53.0959 62.0405 53.0908 62.0328C52.8854 61.8207 52.7067 61.5841 52.5587 61.3286C51.4971 59.4882 53.2064 58.2364 53.1216 61.673C53.106 61.7045 53.0956 61.7384 53.0908 61.7732C53.0762 61.857 53.0797 61.9429 53.1011 62.0251L53.1088 62.056C53.1602 62.11 53.2142 62.1614 53.2707 62.2153C53.3221 62.1768 53.371 62.1357 53.4223 62.0971C53.4532 62.0714 53.484 62.0457 53.5175 62.02C53.5226 61.9532 53.5303 61.8761 53.538 61.7912V61.7887C53.6048 61.0998 53.7874 59.8609 54.1241 59.5242C54.8643 58.9561 55.8231 59.5705 55.1188 60.4084ZM53.5354 61.7912C53.4866 61.8118 53.4378 61.8324 53.3941 61.8555H53.3915C53.3504 61.8761 53.3092 61.8966 53.2681 61.9197C53.263 61.9223 53.2604 61.9249 53.2553 61.9275C53.2013 61.8761 53.1473 61.8247 53.0908 61.7732C53.0762 61.857 53.0797 61.9429 53.1011 62.0251L53.1088 62.056C53.1602 62.11 53.2142 62.1614 53.2707 62.2153C53.3221 62.1768 53.371 62.1357 53.4223 62.0971C53.4532 62.0714 53.484 62.0457 53.5175 62.02C53.5226 61.9532 53.5303 61.8761 53.538 61.7912L53.5354 61.7912Z" fill="#2F2E41"/>
<path d="M115.509 112.395L113.033 118.853L101.416 141.768L111.624 168.424L116.892 167.034L112.55 141.768L125.007 126.631L139.801 136.665C139.801 136.665 146.362 141.788 148.859 136.932C151.355 132.076 167.506 121.748 167.506 121.748L163.51 117.485L144.911 126.189L132.074 108.121L115.509 112.395Z" fill="#2F2E41"/>
<path d="M128.005 81.9317L123.928 77.552L116.935 76.59L108.367 82.5883L108.454 89.2275L112.689 104.872C112.689 104.872 111.076 116.112 115.582 116C120.088 115.887 122.545 113.64 124.38 114.098C126.215 114.555 134.017 116.501 134.512 114.463C135.006 112.424 137.634 113.884 137.519 111.955C137.404 110.026 130.404 96.1244 130.404 96.1244L132.144 82.221L128.005 81.9317Z" fill="#007AFF"/>
<path d="M153.815 61.7712C153.852 62.1344 153.808 62.5012 153.688 62.8457C153.567 63.1903 153.372 63.5042 153.117 63.7653C152.862 64.0265 152.553 64.2285 152.211 64.3573C151.87 64.486 151.504 64.5383 151.14 64.5104L141.766 82.3389L139.249 78.4753L148.831 61.649C148.918 61.0407 149.226 60.4855 149.695 60.0887C150.164 59.6919 150.763 59.4811 151.377 59.4961C151.992 59.5112 152.579 59.7511 153.029 60.1704C153.478 60.5897 153.758 61.1593 153.815 61.7712Z" fill="#FFB6B6"/>
<path d="M124.304 85.2467C124.304 85.2467 123.932 88.418 127.502 89.2031C131.073 89.9882 140.964 84.3364 142.585 83.4732C143.093 83.2029 143.782 81.8779 144.489 80.1853C144.806 79.4255 145.127 78.5915 145.437 77.7456C145.616 77.256 146.475 77.1224 146.644 76.637C146.812 76.1542 146.291 75.3194 146.443 74.8644C147.165 72.7046 147.677 70.9911 147.677 70.9911L145.31 66.5462C142.001 68.2958 140.304 72.1496 139.055 76.5895L124.304 85.2467Z" fill="#007AFF"/>
<path d="M82.608 65.8654C82.6636 66.2262 82.7976 66.5704 83.0006 66.8738C83.2036 67.1771 83.4706 67.4323 83.7829 67.6213C84.0952 67.8104 84.4451 67.9286 84.8081 67.9678C85.171 68.0069 85.5381 67.966 85.8835 67.8479L99.4214 82.7631L100.891 78.3926L87.4033 64.4997C87.1665 63.9326 86.7298 63.472 86.1761 63.2053C85.6224 62.9386 84.9901 62.8843 84.399 63.0526C83.808 63.2209 83.2992 63.6003 82.9691 64.1187C82.639 64.6371 82.5105 65.2586 82.608 65.8654Z" fill="#FFB6B6"/>
<path d="M117.056 81.2083C117.056 81.2083 118.21 84.1857 114.949 85.8393C111.689 87.4928 100.699 84.4962 98.9126 84.0663C98.3533 83.9317 97.3547 82.8213 96.2466 81.3595C95.7492 80.7032 95.2297 79.9761 94.718 79.2346C94.4219 78.8056 93.5572 78.8911 93.2721 78.4633C92.9886 78.038 93.2846 77.0993 93.0234 76.6968C91.7836 74.7864 90.8594 73.2555 90.8594 73.2555L92.038 68.36C95.6799 69.2257 98.2877 72.532 100.608 76.5182L117.056 81.2083Z" fill="#007AFF"/>
<path d="M120.571 75.4759C124.246 75.4759 127.225 72.4971 127.225 68.8225C127.225 65.148 124.246 62.1691 120.571 62.1691C116.897 62.1691 113.918 65.148 113.918 68.8225C113.918 72.4971 116.897 75.4759 120.571 75.4759Z" fill="#FFB6B6"/>
<path d="M128.166 65.0129C127.466 63.9302 126.153 63.2086 124.88 63.4113C124.761 62.5988 124.422 61.8344 123.899 61.2012C123.376 60.5681 122.69 60.0906 121.914 59.8206C121.139 59.5506 120.304 59.4986 119.501 59.6702C118.698 59.8418 117.958 60.2304 117.36 60.7937C117.164 60.6553 116.935 60.5701 116.696 60.5462C116.457 60.5222 116.215 60.5604 115.995 60.6571C115.557 60.8563 115.176 61.1623 114.887 61.5471C114.156 62.4582 113.686 63.5503 113.527 64.7072C113.368 65.8642 113.525 67.0426 113.983 68.1171C113.827 67.5514 114.394 67.0192 114.967 66.8923C115.54 66.7654 116.141 66.8855 116.721 66.8028C117.466 66.6969 118.135 66.265 118.881 66.1678C119.513 66.1267 120.147 66.2082 120.749 66.4078C121.35 66.6074 121.983 66.6925 122.616 66.6586C123.243 66.5841 124.052 68.9623 124.041 70.6373C124.039 70.9548 124.104 71.3623 124.414 71.4297C124.796 71.5126 125.018 70.9854 125.381 70.8417C125.549 70.7937 125.729 70.8126 125.883 70.8944C126.036 70.9763 126.153 71.1147 126.206 71.2805C126.252 71.449 126.257 71.6261 126.221 71.7969C126.184 71.9678 126.108 72.1274 125.997 72.2626C125.774 72.5307 125.508 72.7608 125.211 72.9443L125.361 73.0688C125.503 73.219 125.693 73.3151 125.898 73.3406C126.104 73.3661 126.311 73.3194 126.486 73.2086C126.829 72.976 127.107 72.6594 127.294 72.2889C127.995 71.2036 128.497 70.0014 128.775 68.7391C129.009 67.4714 128.866 66.0957 128.166 65.0129Z" fill="#2F2E41"/>
<path d="M177.388 91.2542C168.806 97.754 151.731 95.7006 146.432 106.835C130.387 140.545 116.661 114.866 102.614 112.089L102.484 111.4C116.547 112.566 131.631 110.757 146.106 106.166C159.187 102.018 170.857 95.8475 179.855 88.3283L180.327 88.9168C179.377 89.7112 178.397 90.4903 177.388 91.2542Z" fill="#F2F2F2"/>
<path d="M141.104 179.546C140.899 180.151 24.201 180.151 23.9805 179.547C24.1846 178.94 140.883 178.94 141.104 179.546Z" fill="#CCCCCC"/>
</g>
</g>
<defs>
<clipPath id="clip0_866_697">
<rect width="180" height="180" fill="white" transform="translate(0.5)"/>
</clipPath>
<clipPath id="clip1_866_697">
<rect width="178.671" height="180" fill="white" transform="translate(1.65527)"/>
</clipPath>
</defs>
</svg>
