<svg width="21" height="20" viewBox="0 0 21 20" fill="none" xmlns="http://www.w3.org/2000/svg">
<path d="M10 20C8.61667 20 7.31667 19.7373 6.1 19.212C4.88334 18.6867 3.825 17.9743 2.925 17.075C2.025 16.1757 1.31267 15.1173 0.788001 13.9C0.263335 12.6827 0.000667933 11.3827 1.26582e-06 10C-0.000665401 8.61733 0.262001 7.31733 0.788001 6.1C1.314 4.88267 2.02633 3.82433 2.925 2.925C3.82367 2.02567 4.882 1.31333 6.1 0.788C7.318 0.262667 8.618 0 10 0C12.4333 0 14.5627 0.762667 16.388 2.288C18.2133 3.81333 19.3507 5.72567 19.8 8.025H17.75C17.4333 6.80833 16.8623 5.721 16.037 4.763C15.2117 3.805 14.1993 3.084 13 2.6V3C13 3.55 12.8043 4.021 12.413 4.413C12.0217 4.805 11.5507 5.00067 11 5H9V7C9 7.28333 8.904 7.521 8.712 7.713C8.52 7.905 8.28267 8.00067 8 8H6V10H8V13H7L2.2 8.2C2.15 8.5 2.10433 8.8 2.063 9.1C2.02167 9.4 2.00067 9.7 2 10C2 12.1833 2.76667 14.0583 4.3 15.625C5.83333 17.1917 7.73333 17.9833 10 18V20ZM19.1 19.5L15.9 16.3C15.55 16.5 15.175 16.6667 14.775 16.8C14.375 16.9333 13.95 17 13.5 17C12.25 17 11.1877 16.5627 10.313 15.688C9.43833 14.8133 9.00067 13.7507 9 12.5C8.99933 11.2493 9.437 10.187 10.313 9.313C11.189 8.439 12.2513 8.00133 13.5 8C14.7487 7.99867 15.8113 8.43633 16.688 9.313C17.5647 10.1897 18.002 11.252 18 12.5C18 12.95 17.9333 13.375 17.8 13.775C17.6667 14.175 17.5 14.55 17.3 14.9L20.5 18.1L19.1 19.5ZM13.5 15C14.2 15 14.7917 14.7583 15.275 14.275C15.7583 13.7917 16 13.2 16 12.5C16 11.8 15.7583 11.2083 15.275 10.725C14.7917 10.2417 14.2 10 13.5 10C12.8 10 12.2083 10.2417 11.725 10.725C11.2417 11.2083 11 11.8 11 12.5C11 13.2 11.2417 13.7917 11.725 14.275C12.2083 14.7583 12.8 15 13.5 15Z" fill="#5C6C7E"/>
</svg>
