<svg width="16" height="16" viewBox="0 0 16 16" fill="none" xmlns="http://www.w3.org/2000/svg">
<path d="M12.1668 4.66683H2.16683M12.1668 4.66683C12.3878 4.66683 12.5998 4.75463 12.7561 4.91091C12.9124 5.06719 13.0002 5.27915 13.0002 5.50016V7.66683M12.1668 4.66683L8.8335 1.3335M2.16683 4.66683C1.94582 4.66683 1.73385 4.75463 1.57757 4.91091C1.42129 5.06719 1.3335 5.27915 1.3335 5.50016V13.8335C1.3335 14.0545 1.42129 14.2665 1.57757 14.4228C1.73385 14.579 1.94582 14.6668 2.16683 14.6668H12.1668C12.3878 14.6668 12.5998 14.579 12.7561 14.4228C12.9124 14.2665 13.0002 14.0545 13.0002 13.8335V11.6668M2.16683 4.66683L5.50016 1.3335L8.8335 4.66683M13.8335 8.00016H10.5002C10.0581 8.00016 9.63421 8.17576 9.32165 8.48832C9.00909 8.80088 8.8335 9.2248 8.8335 9.66683C8.8335 10.1089 9.00909 10.5328 9.32165 10.8453C9.63421 11.1579 10.0581 11.3335 10.5002 11.3335H13.8335C14.0545 11.3335 14.2665 11.2457 14.4228 11.0894C14.579 10.9331 14.6668 10.7212 14.6668 10.5002V8.8335C14.6668 8.61248 14.579 8.40052 14.4228 8.24424C14.2665 8.08796 14.0545 8.00016 13.8335 8.00016Z" stroke="#007AFF" stroke-width="1.66667" stroke-linecap="round" stroke-linejoin="round"/>
</svg>
